<svg width="592" height="28" viewBox="0 0 592 28" fill="none" xmlns="http://www.w3.org/2000/svg">
<path d="M169.132 12.3965H167.266V19H166.131V12.3965H164.805V11.8496L166.131 11.4736V10.9746C166.131 10.3457 166.224 9.83529 166.411 9.44336C166.598 9.04688 166.869 8.75521 167.225 8.56836C167.58 8.38151 168.013 8.28809 168.523 8.28809C168.811 8.28809 169.073 8.31315 169.31 8.36328C169.551 8.41341 169.763 8.47038 169.945 8.53418L169.651 9.42969C169.496 9.37956 169.321 9.33398 169.125 9.29297C168.934 9.2474 168.738 9.22461 168.537 9.22461C168.104 9.22461 167.783 9.36589 167.573 9.64844C167.368 9.92643 167.266 10.3639 167.266 10.9609V11.5078H169.132V12.3965ZM173.315 11.3848C174.209 11.3848 174.872 11.5853 175.305 11.9863C175.738 12.3874 175.954 13.0277 175.954 13.9072V19H175.127L174.908 17.8926H174.854C174.644 18.166 174.425 18.3962 174.197 18.583C173.969 18.7653 173.705 18.9043 173.404 19C173.108 19.0911 172.743 19.1367 172.311 19.1367C171.855 19.1367 171.449 19.057 171.094 18.8975C170.743 18.738 170.465 18.4964 170.26 18.1729C170.059 17.8493 169.959 17.4391 169.959 16.9424C169.959 16.195 170.255 15.6208 170.848 15.2197C171.44 14.8187 172.342 14.5999 173.555 14.5635L174.847 14.5088V14.0508C174.847 13.4036 174.708 12.9502 174.43 12.6904C174.152 12.4307 173.76 12.3008 173.254 12.3008C172.862 12.3008 172.488 12.3577 172.133 12.4717C171.777 12.5856 171.44 12.7201 171.121 12.875L170.772 12.0137C171.11 11.8405 171.497 11.6924 171.935 11.5693C172.372 11.4463 172.832 11.3848 173.315 11.3848ZM174.833 15.3086L173.691 15.3564C172.757 15.3929 172.099 15.5456 171.716 15.8145C171.333 16.0833 171.142 16.4639 171.142 16.9561C171.142 17.3844 171.271 17.7012 171.531 17.9062C171.791 18.1113 172.135 18.2139 172.563 18.2139C173.229 18.2139 173.773 18.0293 174.197 17.6602C174.621 17.291 174.833 16.7373 174.833 15.999V15.3086ZM179.434 19H178.292V8.36328H179.434V19ZM184.718 11.3711C185.356 11.3711 185.903 11.5124 186.358 11.7949C186.814 12.0775 187.163 12.474 187.404 12.9844C187.646 13.4902 187.767 14.0827 187.767 14.7617V15.4658H182.592C182.605 16.3454 182.824 17.0153 183.248 17.4756C183.672 17.9359 184.269 18.166 185.039 18.166C185.513 18.166 185.932 18.1227 186.297 18.0361C186.661 17.9495 187.04 17.8219 187.432 17.6533V18.6514C187.053 18.82 186.677 18.943 186.304 19.0205C185.935 19.098 185.497 19.1367 184.991 19.1367C184.271 19.1367 183.642 18.9909 183.104 18.6992C182.571 18.403 182.157 17.9701 181.86 17.4004C181.564 16.8307 181.416 16.1335 181.416 15.3086C181.416 14.502 181.55 13.8047 181.819 13.2168C182.093 12.6243 182.476 12.1686 182.968 11.8496C183.465 11.5306 184.048 11.3711 184.718 11.3711ZM184.704 12.3008C184.098 12.3008 183.615 12.499 183.255 12.8955C182.895 13.292 182.681 13.8457 182.612 14.5566H186.577C186.573 14.11 186.502 13.7181 186.365 13.3809C186.233 13.0391 186.03 12.7747 185.757 12.5879C185.483 12.3965 185.132 12.3008 184.704 12.3008ZM196.332 19.1367C195.658 19.1367 195.063 18.9977 194.548 18.7197C194.033 18.4417 193.632 18.0179 193.345 17.4482C193.058 16.8786 192.914 16.1608 192.914 15.2949C192.914 14.388 193.064 13.6475 193.365 13.0732C193.671 12.4945 194.09 12.0661 194.623 11.7881C195.156 11.5101 195.762 11.3711 196.441 11.3711C196.815 11.3711 197.175 11.4098 197.521 11.4873C197.872 11.5602 198.16 11.6536 198.383 11.7676L198.041 12.7178C197.813 12.6266 197.549 12.5446 197.248 12.4717C196.952 12.3988 196.674 12.3623 196.414 12.3623C195.895 12.3623 195.462 12.474 195.115 12.6973C194.773 12.9206 194.516 13.2487 194.343 13.6816C194.174 14.1146 194.09 14.6478 194.09 15.2812C194.09 15.8874 194.172 16.4046 194.336 16.833C194.505 17.2614 194.753 17.5895 195.081 17.8174C195.414 18.0407 195.828 18.1523 196.325 18.1523C196.722 18.1523 197.079 18.1113 197.398 18.0293C197.717 17.9427 198.007 17.8424 198.267 17.7285V18.7402C198.016 18.8678 197.736 18.9658 197.426 19.0342C197.12 19.1025 196.756 19.1367 196.332 19.1367ZM206.504 15.2402C206.504 15.8555 206.424 16.4046 206.265 16.8877C206.105 17.3708 205.875 17.7786 205.574 18.1113C205.273 18.444 204.909 18.6992 204.48 18.877C204.057 19.0501 203.576 19.1367 203.038 19.1367C202.537 19.1367 202.076 19.0501 201.657 18.877C201.243 18.6992 200.882 18.444 200.577 18.1113C200.276 17.7786 200.042 17.3708 199.873 16.8877C199.709 16.4046 199.627 15.8555 199.627 15.2402C199.627 14.4199 199.766 13.7227 200.044 13.1484C200.322 12.5697 200.718 12.1299 201.233 11.8291C201.753 11.5238 202.37 11.3711 203.086 11.3711C203.77 11.3711 204.367 11.5238 204.877 11.8291C205.392 12.1344 205.791 12.5765 206.073 13.1553C206.36 13.7295 206.504 14.4245 206.504 15.2402ZM200.803 15.2402C200.803 15.8418 200.882 16.3636 201.042 16.8057C201.201 17.2477 201.448 17.5895 201.78 17.8311C202.113 18.0726 202.541 18.1934 203.065 18.1934C203.585 18.1934 204.011 18.0726 204.344 17.8311C204.681 17.5895 204.929 17.2477 205.089 16.8057C205.248 16.3636 205.328 15.8418 205.328 15.2402C205.328 14.6432 205.248 14.1283 205.089 13.6953C204.929 13.2578 204.683 12.9206 204.351 12.6836C204.018 12.4466 203.587 12.3281 203.059 12.3281C202.279 12.3281 201.707 12.5856 201.343 13.1006C200.983 13.6156 200.803 14.3288 200.803 15.2402ZM212.014 11.3711C212.902 11.3711 213.575 11.5898 214.03 12.0273C214.486 12.4603 214.714 13.1576 214.714 14.1191V19H213.593V14.1943C213.593 13.57 213.449 13.1029 213.162 12.793C212.88 12.4831 212.444 12.3281 211.856 12.3281C211.027 12.3281 210.444 12.5628 210.106 13.0322C209.769 13.5016 209.601 14.1829 209.601 15.0762V19H208.466V11.5078H209.382L209.553 12.5879H209.614C209.774 12.3236 209.977 12.1025 210.223 11.9248C210.469 11.7425 210.744 11.6058 211.05 11.5146C211.355 11.4189 211.676 11.3711 212.014 11.3711ZM220.053 19.1367C219.378 19.1367 218.784 18.9977 218.269 18.7197C217.754 18.4417 217.353 18.0179 217.065 17.4482C216.778 16.8786 216.635 16.1608 216.635 15.2949C216.635 14.388 216.785 13.6475 217.086 13.0732C217.391 12.4945 217.811 12.0661 218.344 11.7881C218.877 11.5101 219.483 11.3711 220.162 11.3711C220.536 11.3711 220.896 11.4098 221.242 11.4873C221.593 11.5602 221.88 11.6536 222.104 11.7676L221.762 12.7178C221.534 12.6266 221.27 12.5446 220.969 12.4717C220.673 12.3988 220.395 12.3623 220.135 12.3623C219.615 12.3623 219.182 12.474 218.836 12.6973C218.494 12.9206 218.237 13.2487 218.063 13.6816C217.895 14.1146 217.811 14.6478 217.811 15.2812C217.811 15.8874 217.893 16.4046 218.057 16.833C218.225 17.2614 218.474 17.5895 218.802 17.8174C219.134 18.0407 219.549 18.1523 220.046 18.1523C220.442 18.1523 220.8 18.1113 221.119 18.0293C221.438 17.9427 221.728 17.8424 221.987 17.7285V18.7402C221.737 18.8678 221.456 18.9658 221.146 19.0342C220.841 19.1025 220.477 19.1367 220.053 19.1367ZM230.225 15.2402C230.225 15.8555 230.145 16.4046 229.985 16.8877C229.826 17.3708 229.596 17.7786 229.295 18.1113C228.994 18.444 228.63 18.6992 228.201 18.877C227.777 19.0501 227.297 19.1367 226.759 19.1367C226.257 19.1367 225.797 19.0501 225.378 18.877C224.963 18.6992 224.603 18.444 224.298 18.1113C223.997 17.7786 223.762 17.3708 223.594 16.8877C223.43 16.4046 223.348 15.8555 223.348 15.2402C223.348 14.4199 223.487 13.7227 223.765 13.1484C224.043 12.5697 224.439 12.1299 224.954 11.8291C225.474 11.5238 226.091 11.3711 226.807 11.3711C227.49 11.3711 228.087 11.5238 228.598 11.8291C229.113 12.1344 229.511 12.5765 229.794 13.1553C230.081 13.7295 230.225 14.4245 230.225 15.2402ZM224.523 15.2402C224.523 15.8418 224.603 16.3636 224.763 16.8057C224.922 17.2477 225.168 17.5895 225.501 17.8311C225.834 18.0726 226.262 18.1934 226.786 18.1934C227.306 18.1934 227.732 18.0726 228.064 17.8311C228.402 17.5895 228.65 17.2477 228.81 16.8057C228.969 16.3636 229.049 15.8418 229.049 15.2402C229.049 14.6432 228.969 14.1283 228.81 13.6953C228.65 13.2578 228.404 12.9206 228.071 12.6836C227.739 12.4466 227.308 12.3281 226.779 12.3281C226 12.3281 225.428 12.5856 225.063 13.1006C224.703 13.6156 224.523 14.3288 224.523 15.2402ZM237.033 16.9492C237.033 17.4277 236.912 17.8311 236.671 18.1592C236.434 18.4827 236.092 18.7266 235.646 18.8906C235.203 19.0547 234.675 19.1367 234.06 19.1367C233.535 19.1367 233.082 19.0957 232.699 19.0137C232.316 18.9316 231.981 18.8154 231.694 18.665V17.6191C232 17.7695 232.364 17.9062 232.788 18.0293C233.212 18.1523 233.645 18.2139 234.087 18.2139C234.734 18.2139 235.203 18.109 235.495 17.8994C235.787 17.6898 235.933 17.4049 235.933 17.0449C235.933 16.8398 235.873 16.6598 235.755 16.5049C235.641 16.3454 235.447 16.1927 235.174 16.0469C234.9 15.8965 234.522 15.7324 234.039 15.5547C233.561 15.3724 233.146 15.1924 232.795 15.0146C232.449 14.8324 232.18 14.6113 231.988 14.3516C231.801 14.0918 231.708 13.7546 231.708 13.3398C231.708 12.7064 231.963 12.221 232.474 11.8838C232.989 11.542 233.663 11.3711 234.497 11.3711C234.948 11.3711 235.37 11.4167 235.762 11.5078C236.158 11.5944 236.527 11.7129 236.869 11.8633L236.486 12.7725C236.176 12.6403 235.846 12.5286 235.495 12.4375C235.144 12.3464 234.786 12.3008 234.422 12.3008C233.898 12.3008 233.494 12.3874 233.212 12.5605C232.934 12.7337 232.795 12.9707 232.795 13.2715C232.795 13.5039 232.859 13.6953 232.986 13.8457C233.118 13.9961 233.328 14.1374 233.615 14.2695C233.902 14.4017 234.281 14.5566 234.75 14.7344C235.219 14.9076 235.625 15.0876 235.967 15.2744C236.309 15.4567 236.571 15.68 236.753 15.9443C236.94 16.2041 237.033 16.5391 237.033 16.9492ZM241.859 19.1367C241.185 19.1367 240.59 18.9977 240.075 18.7197C239.56 18.4417 239.159 18.0179 238.872 17.4482C238.585 16.8786 238.441 16.1608 238.441 15.2949C238.441 14.388 238.592 13.6475 238.893 13.0732C239.198 12.4945 239.617 12.0661 240.15 11.7881C240.684 11.5101 241.29 11.3711 241.969 11.3711C242.342 11.3711 242.702 11.4098 243.049 11.4873C243.4 11.5602 243.687 11.6536 243.91 11.7676L243.568 12.7178C243.34 12.6266 243.076 12.5446 242.775 12.4717C242.479 12.3988 242.201 12.3623 241.941 12.3623C241.422 12.3623 240.989 12.474 240.643 12.6973C240.301 12.9206 240.043 13.2487 239.87 13.6816C239.701 14.1146 239.617 14.6478 239.617 15.2812C239.617 15.8874 239.699 16.4046 239.863 16.833C240.032 17.2614 240.28 17.5895 240.608 17.8174C240.941 18.0407 241.356 18.1523 241.853 18.1523C242.249 18.1523 242.607 18.1113 242.926 18.0293C243.245 17.9427 243.534 17.8424 243.794 17.7285V18.7402C243.543 18.8678 243.263 18.9658 242.953 19.0342C242.648 19.1025 242.283 19.1367 241.859 19.1367ZM252.031 15.2402C252.031 15.8555 251.951 16.4046 251.792 16.8877C251.632 17.3708 251.402 17.7786 251.102 18.1113C250.801 18.444 250.436 18.6992 250.008 18.877C249.584 19.0501 249.103 19.1367 248.565 19.1367C248.064 19.1367 247.604 19.0501 247.185 18.877C246.77 18.6992 246.41 18.444 246.104 18.1113C245.804 17.7786 245.569 17.3708 245.4 16.8877C245.236 16.4046 245.154 15.8555 245.154 15.2402C245.154 14.4199 245.293 13.7227 245.571 13.1484C245.849 12.5697 246.246 12.1299 246.761 11.8291C247.28 11.5238 247.898 11.3711 248.613 11.3711C249.297 11.3711 249.894 11.5238 250.404 11.8291C250.919 12.1344 251.318 12.5765 251.601 13.1553C251.888 13.7295 252.031 14.4245 252.031 15.2402ZM246.33 15.2402C246.33 15.8418 246.41 16.3636 246.569 16.8057C246.729 17.2477 246.975 17.5895 247.308 17.8311C247.64 18.0726 248.069 18.1934 248.593 18.1934C249.112 18.1934 249.538 18.0726 249.871 17.8311C250.208 17.5895 250.457 17.2477 250.616 16.8057C250.776 16.3636 250.855 15.8418 250.855 15.2402C250.855 14.6432 250.776 14.1283 250.616 13.6953C250.457 13.2578 250.211 12.9206 249.878 12.6836C249.545 12.4466 249.115 12.3281 248.586 12.3281C247.807 12.3281 247.235 12.5856 246.87 13.1006C246.51 13.6156 246.33 14.3288 246.33 15.2402ZM261.178 11.3711C262.066 11.3711 262.739 11.5898 263.194 12.0273C263.65 12.4603 263.878 13.1576 263.878 14.1191V19H262.757V14.1943C262.757 13.57 262.613 13.1029 262.326 12.793C262.044 12.4831 261.608 12.3281 261.021 12.3281C260.191 12.3281 259.608 12.5628 259.271 13.0322C258.933 13.5016 258.765 14.1829 258.765 15.0762V19H257.63V11.5078H258.546L258.717 12.5879H258.778C258.938 12.3236 259.141 12.1025 259.387 11.9248C259.633 11.7425 259.909 11.6058 260.214 11.5146C260.519 11.4189 260.84 11.3711 261.178 11.3711ZM272.676 15.2402C272.676 15.8555 272.596 16.4046 272.437 16.8877C272.277 17.3708 272.047 17.7786 271.746 18.1113C271.445 18.444 271.081 18.6992 270.652 18.877C270.229 19.0501 269.748 19.1367 269.21 19.1367C268.709 19.1367 268.248 19.0501 267.829 18.877C267.414 18.6992 267.054 18.444 266.749 18.1113C266.448 17.7786 266.214 17.3708 266.045 16.8877C265.881 16.4046 265.799 15.8555 265.799 15.2402C265.799 14.4199 265.938 13.7227 266.216 13.1484C266.494 12.5697 266.89 12.1299 267.405 11.8291C267.925 11.5238 268.542 11.3711 269.258 11.3711C269.941 11.3711 270.538 11.5238 271.049 11.8291C271.564 12.1344 271.963 12.5765 272.245 13.1553C272.532 13.7295 272.676 14.4245 272.676 15.2402ZM266.975 15.2402C266.975 15.8418 267.054 16.3636 267.214 16.8057C267.373 17.2477 267.619 17.5895 267.952 17.8311C268.285 18.0726 268.713 18.1934 269.237 18.1934C269.757 18.1934 270.183 18.0726 270.516 17.8311C270.853 17.5895 271.101 17.2477 271.261 16.8057C271.42 16.3636 271.5 15.8418 271.5 15.2402C271.5 14.6432 271.42 14.1283 271.261 13.6953C271.101 13.2578 270.855 12.9206 270.522 12.6836C270.19 12.4466 269.759 12.3281 269.23 12.3281C268.451 12.3281 267.879 12.5856 267.515 13.1006C267.155 13.6156 266.975 14.3288 266.975 15.2402ZM279.409 11.5078V19H278.274V11.5078H279.409ZM278.855 8.70508C279.042 8.70508 279.202 8.7666 279.334 8.88965C279.471 9.00814 279.539 9.19499 279.539 9.4502C279.539 9.70085 279.471 9.8877 279.334 10.0107C279.202 10.1338 279.042 10.1953 278.855 10.1953C278.66 10.1953 278.495 10.1338 278.363 10.0107C278.236 9.8877 278.172 9.70085 278.172 9.4502C278.172 9.19499 278.236 9.00814 278.363 8.88965C278.495 8.7666 278.66 8.70508 278.855 8.70508ZM285.363 11.3711C286.252 11.3711 286.924 11.5898 287.38 12.0273C287.836 12.4603 288.063 13.1576 288.063 14.1191V19H286.942V14.1943C286.942 13.57 286.799 13.1029 286.512 12.793C286.229 12.4831 285.794 12.3281 285.206 12.3281C284.377 12.3281 283.793 12.5628 283.456 13.0322C283.119 13.5016 282.95 14.1829 282.95 15.0762V19H281.815V11.5078H282.731L282.902 12.5879H282.964C283.123 12.3236 283.326 12.1025 283.572 11.9248C283.818 11.7425 284.094 11.6058 284.399 11.5146C284.705 11.4189 285.026 11.3711 285.363 11.3711ZM295.248 16.9492C295.248 17.4277 295.127 17.8311 294.886 18.1592C294.649 18.4827 294.307 18.7266 293.86 18.8906C293.418 19.0547 292.89 19.1367 292.274 19.1367C291.75 19.1367 291.297 19.0957 290.914 19.0137C290.531 18.9316 290.196 18.8154 289.909 18.665V17.6191C290.215 17.7695 290.579 17.9062 291.003 18.0293C291.427 18.1523 291.86 18.2139 292.302 18.2139C292.949 18.2139 293.418 18.109 293.71 17.8994C294.002 17.6898 294.147 17.4049 294.147 17.0449C294.147 16.8398 294.088 16.6598 293.97 16.5049C293.856 16.3454 293.662 16.1927 293.389 16.0469C293.115 15.8965 292.737 15.7324 292.254 15.5547C291.775 15.3724 291.361 15.1924 291.01 15.0146C290.663 14.8324 290.395 14.6113 290.203 14.3516C290.016 14.0918 289.923 13.7546 289.923 13.3398C289.923 12.7064 290.178 12.221 290.688 11.8838C291.203 11.542 291.878 11.3711 292.712 11.3711C293.163 11.3711 293.585 11.4167 293.977 11.5078C294.373 11.5944 294.742 11.7129 295.084 11.8633L294.701 12.7725C294.391 12.6403 294.061 12.5286 293.71 12.4375C293.359 12.3464 293.001 12.3008 292.637 12.3008C292.113 12.3008 291.709 12.3874 291.427 12.5605C291.149 12.7337 291.01 12.9707 291.01 13.2715C291.01 13.5039 291.074 13.6953 291.201 13.8457C291.333 13.9961 291.543 14.1374 291.83 14.2695C292.117 14.4017 292.495 14.5566 292.965 14.7344C293.434 14.9076 293.84 15.0876 294.182 15.2744C294.523 15.4567 294.785 15.68 294.968 15.9443C295.155 16.2041 295.248 16.5391 295.248 16.9492ZM299.493 18.207C299.68 18.207 299.871 18.1911 300.067 18.1592C300.263 18.1273 300.423 18.0885 300.546 18.043V18.9248C300.414 18.984 300.229 19.0342 299.992 19.0752C299.76 19.1162 299.532 19.1367 299.309 19.1367C298.912 19.1367 298.552 19.0684 298.229 18.9316C297.905 18.7904 297.645 18.5534 297.449 18.2207C297.258 17.888 297.162 17.4277 297.162 16.8398V12.3965H296.096V11.8428L297.169 11.3984L297.62 9.77148H298.304V11.5078H300.498V12.3965H298.304V16.8057C298.304 17.2751 298.411 17.626 298.625 17.8584C298.844 18.0908 299.133 18.207 299.493 18.207ZM304.866 11.3848C305.759 11.3848 306.423 11.5853 306.855 11.9863C307.288 12.3874 307.505 13.0277 307.505 13.9072V19H306.678L306.459 17.8926H306.404C306.195 18.166 305.976 18.3962 305.748 18.583C305.52 18.7653 305.256 18.9043 304.955 19C304.659 19.0911 304.294 19.1367 303.861 19.1367C303.406 19.1367 303 19.057 302.645 18.8975C302.294 18.738 302.016 18.4964 301.811 18.1729C301.61 17.8493 301.51 17.4391 301.51 16.9424C301.51 16.195 301.806 15.6208 302.398 15.2197C302.991 14.8187 303.893 14.5999 305.105 14.5635L306.397 14.5088V14.0508C306.397 13.4036 306.258 12.9502 305.98 12.6904C305.702 12.4307 305.311 12.3008 304.805 12.3008C304.413 12.3008 304.039 12.3577 303.684 12.4717C303.328 12.5856 302.991 12.7201 302.672 12.875L302.323 12.0137C302.66 11.8405 303.048 11.6924 303.485 11.5693C303.923 11.4463 304.383 11.3848 304.866 11.3848ZM306.384 15.3086L305.242 15.3564C304.308 15.3929 303.649 15.5456 303.267 15.8145C302.884 16.0833 302.692 16.4639 302.692 16.9561C302.692 17.3844 302.822 17.7012 303.082 17.9062C303.342 18.1113 303.686 18.2139 304.114 18.2139C304.78 18.2139 305.324 18.0293 305.748 17.6602C306.172 17.291 306.384 16.7373 306.384 15.999V15.3086ZM311.935 22.3633C310.95 22.3633 310.191 22.1787 309.658 21.8096C309.125 21.445 308.858 20.9323 308.858 20.2715C308.858 19.8021 309.007 19.401 309.303 19.0684C309.604 18.7357 310.018 18.5146 310.547 18.4053C310.351 18.3141 310.182 18.1774 310.041 17.9951C309.904 17.8128 309.836 17.6032 309.836 17.3662C309.836 17.0928 309.911 16.8535 310.062 16.6484C310.216 16.4388 310.451 16.2383 310.766 16.0469C310.374 15.8874 310.055 15.6185 309.809 15.2402C309.567 14.8574 309.446 14.4131 309.446 13.9072C309.446 13.3695 309.558 12.9115 309.781 12.5332C310.005 12.1504 310.328 11.8587 310.752 11.6582C311.176 11.4577 311.688 11.3574 312.29 11.3574C312.422 11.3574 312.554 11.3643 312.687 11.3779C312.823 11.387 312.953 11.403 313.076 11.4258C313.199 11.444 313.306 11.4668 313.397 11.4941H315.968V12.2256L314.587 12.3965C314.724 12.5742 314.838 12.7884 314.929 13.0391C315.02 13.2897 315.065 13.5677 315.065 13.873C315.065 14.6204 314.812 15.2152 314.307 15.6572C313.801 16.0947 313.106 16.3135 312.222 16.3135C312.012 16.3135 311.798 16.2952 311.579 16.2588C311.356 16.3818 311.185 16.5186 311.066 16.6689C310.952 16.8193 310.896 16.9925 310.896 17.1885C310.896 17.3343 310.939 17.4505 311.025 17.5371C311.117 17.6237 311.246 17.6875 311.415 17.7285C311.584 17.765 311.786 17.7832 312.023 17.7832H313.343C314.159 17.7832 314.783 17.9541 315.216 18.2959C315.653 18.6377 315.872 19.1367 315.872 19.793C315.872 20.6224 315.535 21.2581 314.86 21.7002C314.186 22.1423 313.211 22.3633 311.935 22.3633ZM311.969 21.4746C312.589 21.4746 313.101 21.4108 313.507 21.2832C313.917 21.1602 314.222 20.9801 314.423 20.7432C314.628 20.5107 314.73 20.2327 314.73 19.9092C314.73 19.6084 314.662 19.3805 314.525 19.2256C314.389 19.0752 314.188 18.9749 313.924 18.9248C313.66 18.8701 313.336 18.8428 312.953 18.8428H311.654C311.317 18.8428 311.023 18.8952 310.772 19C310.522 19.1048 310.328 19.2598 310.191 19.4648C310.059 19.6699 309.993 19.9251 309.993 20.2305C309.993 20.6361 310.164 20.9437 310.506 21.1533C310.848 21.3675 311.335 21.4746 311.969 21.4746ZM312.263 15.4863C312.805 15.4863 313.213 15.3496 313.486 15.0762C313.76 14.8027 313.896 14.404 313.896 13.8799C313.896 13.3193 313.757 12.9001 313.479 12.6221C313.201 12.3395 312.791 12.1982 312.249 12.1982C311.729 12.1982 311.328 12.3441 311.046 12.6357C310.768 12.9229 310.629 13.3444 310.629 13.9004C310.629 14.4108 310.77 14.8027 311.053 15.0762C311.335 15.3496 311.739 15.4863 312.263 15.4863ZM320.849 11.3711C320.999 11.3711 321.156 11.3802 321.32 11.3984C321.484 11.4121 321.63 11.4326 321.758 11.46L321.614 12.5127C321.491 12.4808 321.354 12.4557 321.204 12.4375C321.054 12.4193 320.912 12.4102 320.78 12.4102C320.479 12.4102 320.195 12.4717 319.926 12.5947C319.661 12.7132 319.429 12.8864 319.229 13.1143C319.028 13.3376 318.871 13.6087 318.757 13.9277C318.643 14.2422 318.586 14.5931 318.586 14.9805V19H317.444V11.5078H318.388L318.511 12.8887H318.559C318.714 12.6107 318.9 12.3577 319.119 12.1299C319.338 11.8975 319.591 11.7129 319.878 11.5762C320.17 11.4395 320.493 11.3711 320.849 11.3711ZM325.976 11.3848C326.869 11.3848 327.532 11.5853 327.965 11.9863C328.398 12.3874 328.614 13.0277 328.614 13.9072V19H327.787L327.568 17.8926H327.514C327.304 18.166 327.085 18.3962 326.857 18.583C326.63 18.7653 326.365 18.9043 326.064 19C325.768 19.0911 325.404 19.1367 324.971 19.1367C324.515 19.1367 324.109 19.057 323.754 18.8975C323.403 18.738 323.125 18.4964 322.92 18.1729C322.719 17.8493 322.619 17.4391 322.619 16.9424C322.619 16.195 322.915 15.6208 323.508 15.2197C324.1 14.8187 325.003 14.5999 326.215 14.5635L327.507 14.5088V14.0508C327.507 13.4036 327.368 12.9502 327.09 12.6904C326.812 12.4307 326.42 12.3008 325.914 12.3008C325.522 12.3008 325.148 12.3577 324.793 12.4717C324.438 12.5856 324.1 12.7201 323.781 12.875L323.433 12.0137C323.77 11.8405 324.157 11.6924 324.595 11.5693C325.032 11.4463 325.493 11.3848 325.976 11.3848ZM327.493 15.3086L326.352 15.3564C325.417 15.3929 324.759 15.5456 324.376 15.8145C323.993 16.0833 323.802 16.4639 323.802 16.9561C323.802 17.3844 323.932 17.7012 324.191 17.9062C324.451 18.1113 324.795 18.2139 325.224 18.2139C325.889 18.2139 326.434 18.0293 326.857 17.6602C327.281 17.291 327.493 16.7373 327.493 15.999V15.3086ZM339.087 11.3711C339.912 11.3711 340.534 11.5876 340.953 12.0205C341.372 12.4489 341.582 13.1393 341.582 14.0918V19H340.461V14.1465C340.461 13.5404 340.329 13.0869 340.064 12.7861C339.805 12.4808 339.417 12.3281 338.902 12.3281C338.178 12.3281 337.651 12.5378 337.323 12.957C336.995 13.3763 336.831 13.9938 336.831 14.8096V19H335.703V14.1465C335.703 13.7409 335.644 13.4036 335.525 13.1348C335.411 12.8659 335.238 12.6654 335.006 12.5332C334.778 12.3965 334.489 12.3281 334.138 12.3281C333.641 12.3281 333.242 12.4307 332.941 12.6357C332.641 12.8408 332.422 13.1462 332.285 13.5518C332.153 13.9528 332.087 14.4473 332.087 15.0352V19H330.952V11.5078H331.868L332.039 12.5674H332.101C332.251 12.3076 332.44 12.0889 332.668 11.9111C332.896 11.7334 333.151 11.599 333.434 11.5078C333.716 11.4167 334.017 11.3711 334.336 11.3711C334.906 11.3711 335.382 11.4782 335.765 11.6924C336.152 11.902 336.432 12.2233 336.605 12.6562H336.667C336.913 12.2233 337.25 11.902 337.679 11.6924C338.107 11.4782 338.576 11.3711 339.087 11.3711ZM358.214 13.9893C358.214 14.4222 358.161 14.8506 358.057 15.2744C357.956 15.6937 357.801 16.0742 357.592 16.416C357.382 16.7533 357.118 17.0244 356.799 17.2295C356.484 17.43 356.111 17.5303 355.678 17.5303C355.336 17.5303 355.033 17.4482 354.769 17.2842C354.509 17.1201 354.326 16.9082 354.222 16.6484H354.112C353.921 16.8809 353.67 17.0859 353.36 17.2637C353.05 17.4414 352.674 17.5303 352.232 17.5303C351.398 17.5303 350.756 17.2819 350.305 16.7852C349.854 16.2839 349.628 15.6276 349.628 14.8164C349.628 14.1875 349.762 13.6338 350.031 13.1553C350.3 12.6722 350.683 12.2939 351.18 12.0205C351.676 11.7471 352.262 11.6104 352.937 11.6104C353.379 11.6104 353.832 11.6514 354.297 11.7334C354.766 11.8109 355.133 11.8952 355.397 11.9863L355.261 14.8574C355.252 14.9531 355.245 15.0488 355.24 15.1445C355.24 15.2402 355.24 15.3018 355.24 15.3291C355.24 15.7165 355.293 15.974 355.397 16.1016C355.507 16.2246 355.628 16.2861 355.76 16.2861C355.969 16.2861 356.145 16.1813 356.286 15.9717C356.427 15.762 356.535 15.4818 356.607 15.1309C356.68 14.7799 356.717 14.3949 356.717 13.9756C356.717 13.1963 356.557 12.5332 356.238 11.9863C355.924 11.4349 355.491 11.0156 354.939 10.7285C354.393 10.4368 353.771 10.291 353.073 10.291C352.34 10.291 351.692 10.4072 351.132 10.6396C350.571 10.8721 350.1 11.1979 349.717 11.6172C349.339 12.0365 349.051 12.5309 348.855 13.1006C348.664 13.6702 348.568 14.2923 348.568 14.9668C348.568 15.8053 348.719 16.5163 349.02 17.0996C349.32 17.6829 349.762 18.125 350.346 18.4258C350.934 18.7266 351.651 18.877 352.499 18.877C353.041 18.877 353.604 18.8177 354.188 18.6992C354.775 18.5762 355.313 18.4235 355.801 18.2412V19.5605C355.354 19.7474 354.855 19.8955 354.304 20.0049C353.752 20.1188 353.169 20.1758 352.554 20.1758C351.396 20.1758 350.407 19.9707 349.587 19.5605C348.767 19.1504 348.138 18.5602 347.7 17.79C347.267 17.0153 347.051 16.0879 347.051 15.0078C347.051 14.1602 347.19 13.374 347.468 12.6494C347.75 11.9202 348.154 11.2845 348.678 10.7422C349.202 10.1953 349.833 9.76921 350.571 9.46387C351.314 9.15853 352.144 9.00586 353.06 9.00586C354.058 9.00586 354.944 9.20866 355.719 9.61426C356.498 10.0153 357.109 10.5872 357.551 11.3301C357.993 12.0729 358.214 12.9593 358.214 13.9893ZM351.214 14.8438C351.214 15.3542 351.319 15.7233 351.528 15.9512C351.743 16.1745 352.03 16.2861 352.39 16.2861C352.859 16.2861 353.189 16.1152 353.381 15.7734C353.572 15.4316 353.684 14.985 353.716 14.4336L353.805 12.9229C353.7 12.9001 353.581 12.8841 353.449 12.875C353.317 12.8613 353.174 12.8545 353.019 12.8545C352.576 12.8545 352.223 12.9525 351.959 13.1484C351.695 13.3398 351.503 13.5882 351.385 13.8936C351.271 14.1943 351.214 14.5111 351.214 14.8438ZM363.231 17.4756C363.459 17.4756 363.68 17.4528 363.895 17.4072C364.113 17.3617 364.33 17.3047 364.544 17.2363V18.7881C364.321 18.8883 364.043 18.9704 363.71 19.0342C363.382 19.1025 363.022 19.1367 362.63 19.1367C362.174 19.1367 361.764 19.0638 361.399 18.918C361.039 18.7676 360.755 18.5101 360.545 18.1455C360.34 17.7764 360.237 17.2637 360.237 16.6074V12.9229H359.239V12.041L360.388 11.3438L360.989 9.73047H362.322V11.3574H364.462V12.9229H362.322V16.6074C362.322 16.8991 362.404 17.1178 362.568 17.2637C362.737 17.4049 362.958 17.4756 363.231 17.4756ZM370.361 11.2139C370.466 11.2139 370.587 11.2207 370.724 11.2344C370.865 11.2435 370.979 11.2572 371.065 11.2754L370.908 13.2305C370.84 13.2077 370.742 13.1917 370.614 13.1826C370.491 13.1689 370.384 13.1621 370.293 13.1621C370.024 13.1621 369.762 13.1963 369.507 13.2646C369.256 13.333 369.031 13.4447 368.83 13.5996C368.63 13.75 368.47 13.9505 368.352 14.2012C368.238 14.4473 368.181 14.7503 368.181 15.1104V19H366.096V11.3574H367.675L367.982 12.6426H368.085C368.235 12.3828 368.422 12.1458 368.646 11.9316C368.873 11.7129 369.131 11.5397 369.418 11.4121C369.71 11.2799 370.024 11.2139 370.361 11.2139ZM375.604 11.2139C376.311 11.2139 376.919 11.3506 377.43 11.624C377.94 11.8929 378.334 12.2848 378.612 12.7998C378.89 13.3148 379.029 13.9437 379.029 14.6865V15.6982H374.101C374.123 16.2861 374.299 16.7487 374.627 17.0859C374.96 17.4186 375.42 17.585 376.008 17.585C376.495 17.585 376.942 17.5348 377.348 17.4346C377.753 17.3343 378.17 17.1839 378.599 16.9834V18.5967C378.22 18.7835 377.824 18.9202 377.409 19.0068C376.999 19.0934 376.5 19.1367 375.912 19.1367C375.146 19.1367 374.467 18.9954 373.875 18.7129C373.287 18.4303 372.825 17.9997 372.487 17.4209C372.155 16.8421 371.988 16.113 371.988 15.2334C371.988 14.3402 372.139 13.5973 372.439 13.0049C372.745 12.4079 373.169 11.9613 373.711 11.665C374.253 11.3643 374.884 11.2139 375.604 11.2139ZM375.618 12.6973C375.213 12.6973 374.875 12.8271 374.606 13.0869C374.342 13.3467 374.189 13.7546 374.148 14.3105H377.074C377.07 14.0007 377.013 13.7249 376.903 13.4834C376.799 13.2419 376.639 13.0505 376.425 12.9092C376.215 12.7679 375.946 12.6973 375.618 12.6973ZM382.81 11.3574V19H380.725V11.3574H382.81ZM381.771 8.36328C382.08 8.36328 382.347 8.4362 382.57 8.58203C382.794 8.72331 382.905 8.98991 382.905 9.38184C382.905 9.76921 382.794 10.0381 382.57 10.1885C382.347 10.3343 382.08 10.4072 381.771 10.4072C381.456 10.4072 381.187 10.3343 380.964 10.1885C380.745 10.0381 380.636 9.76921 380.636 9.38184C380.636 8.98991 380.745 8.72331 380.964 8.58203C381.187 8.4362 381.456 8.36328 381.771 8.36328ZM389.345 11.2139C390.16 11.2139 390.817 11.4372 391.313 11.8838C391.81 12.3258 392.059 13.0368 392.059 14.0166V19H389.974V14.5361C389.974 13.9893 389.873 13.5768 389.673 13.2988C389.477 13.0208 389.167 12.8818 388.743 12.8818C388.105 12.8818 387.67 13.0983 387.438 13.5312C387.205 13.9642 387.089 14.5885 387.089 15.4043V19H385.004V11.3574H386.597L386.877 12.335H386.993C387.157 12.0706 387.36 11.8564 387.602 11.6924C387.848 11.5283 388.119 11.4076 388.415 11.3301C388.716 11.2526 389.026 11.2139 389.345 11.2139ZM397.356 11.2139C398.063 11.2139 398.671 11.3506 399.182 11.624C399.692 11.8929 400.086 12.2848 400.364 12.7998C400.642 13.3148 400.781 13.9437 400.781 14.6865V15.6982H395.853C395.875 16.2861 396.051 16.7487 396.379 17.0859C396.712 17.4186 397.172 17.585 397.76 17.585C398.247 17.585 398.694 17.5348 399.1 17.4346C399.505 17.3343 399.922 17.1839 400.351 16.9834V18.5967C399.972 18.7835 399.576 18.9202 399.161 19.0068C398.751 19.0934 398.252 19.1367 397.664 19.1367C396.898 19.1367 396.219 18.9954 395.627 18.7129C395.039 18.4303 394.576 17.9997 394.239 17.4209C393.907 16.8421 393.74 16.113 393.74 15.2334C393.74 14.3402 393.891 13.5973 394.191 13.0049C394.497 12.4079 394.921 11.9613 395.463 11.665C396.005 11.3643 396.636 11.2139 397.356 11.2139ZM397.37 12.6973C396.965 12.6973 396.627 12.8271 396.358 13.0869C396.094 13.3467 395.941 13.7546 395.9 14.3105H398.826C398.822 14.0007 398.765 13.7249 398.655 13.4834C398.55 13.2419 398.391 13.0505 398.177 12.9092C397.967 12.7679 397.698 12.6973 397.37 12.6973ZM402.183 18.0225C402.183 17.5941 402.299 17.2933 402.531 17.1201C402.768 16.9469 403.053 16.8604 403.386 16.8604C403.709 16.8604 403.987 16.9469 404.22 17.1201C404.457 17.2933 404.575 17.5941 404.575 18.0225C404.575 18.4326 404.457 18.7288 404.22 18.9111C403.987 19.0934 403.709 19.1846 403.386 19.1846C403.053 19.1846 402.768 19.0934 402.531 18.9111C402.299 18.7288 402.183 18.4326 402.183 18.0225ZM415.444 11.2139C416.31 11.2139 416.964 11.4372 417.406 11.8838C417.853 12.3258 418.076 13.0368 418.076 14.0166V19H415.984V14.5361C415.984 13.9893 415.891 13.5768 415.704 13.2988C415.517 13.0208 415.228 12.8818 414.836 12.8818C414.285 12.8818 413.893 13.0801 413.66 13.4766C413.428 13.8685 413.312 14.4313 413.312 15.165V19H411.227V14.5361C411.227 14.1715 411.186 13.8662 411.104 13.6201C411.021 13.374 410.896 13.1895 410.728 13.0664C410.559 12.9434 410.342 12.8818 410.078 12.8818C409.691 12.8818 409.385 12.9798 409.162 13.1758C408.943 13.3672 408.786 13.652 408.69 14.0303C408.599 14.404 408.554 14.862 408.554 15.4043V19H406.469V11.3574H408.062L408.342 12.335H408.458C408.613 12.0706 408.807 11.8564 409.039 11.6924C409.276 11.5283 409.536 11.4076 409.818 11.3301C410.101 11.2526 410.388 11.2139 410.68 11.2139C411.24 11.2139 411.714 11.305 412.102 11.4873C412.493 11.6696 412.794 11.9521 413.004 12.335H413.188C413.416 11.943 413.738 11.6582 414.152 11.4805C414.572 11.3027 415.002 11.2139 415.444 11.2139ZM423.374 11.2139C424.08 11.2139 424.689 11.3506 425.199 11.624C425.71 11.8929 426.104 12.2848 426.382 12.7998C426.66 13.3148 426.799 13.9437 426.799 14.6865V15.6982H421.87C421.893 16.2861 422.068 16.7487 422.396 17.0859C422.729 17.4186 423.189 17.585 423.777 17.585C424.265 17.585 424.712 17.5348 425.117 17.4346C425.523 17.3343 425.94 17.1839 426.368 16.9834V18.5967C425.99 18.7835 425.593 18.9202 425.179 19.0068C424.769 19.0934 424.27 19.1367 423.682 19.1367C422.916 19.1367 422.237 18.9954 421.645 18.7129C421.057 18.4303 420.594 17.9997 420.257 17.4209C419.924 16.8421 419.758 16.113 419.758 15.2334C419.758 14.3402 419.908 13.5973 420.209 13.0049C420.514 12.4079 420.938 11.9613 421.48 11.665C422.023 11.3643 422.654 11.2139 423.374 11.2139ZM423.388 12.6973C422.982 12.6973 422.645 12.8271 422.376 13.0869C422.112 13.3467 421.959 13.7546 421.918 14.3105H424.844C424.839 14.0007 424.782 13.7249 424.673 13.4834C424.568 13.2419 424.409 13.0505 424.194 12.9092C423.985 12.7679 423.716 12.6973 423.388 12.6973Z" fill="black"/>
</svg>
